<svg width="25" height="20" viewBox="0 0 25 20" fill="none" xmlns="http://www.w3.org/2000/svg">
<path d="M25 10C25 15.5242 19.4052 20 12.5 20C5.59476 20 0 15.5242 0 10C0 4.47581 5.59476 0 12.5 0C19.4052 0 25 4.47581 25 10ZM10.2823 5.32258V10H6.70867C6.16936 10 5.89718 10.5242 6.28024 10.8266L12.0716 15.4355C12.3085 15.625 12.6865 15.625 12.9234 15.4355L18.7147 10.8266C19.0978 10.5202 18.8256 10 18.2863 10H14.7177V5.32258C14.7177 5.05645 14.4456 4.83871 14.1129 4.83871H10.8871C10.5544 4.83871 10.2823 5.05645 10.2823 5.32258Z" fill="#5A0F2E"/>
</svg>
