<svg width="48" height="48" viewBox="0 0 48 48" fill="none" xmlns="http://www.w3.org/2000/svg">
<path d="M17.4522 14.024C14.4167 12.8369 11.1797 12.6449 8.14706 13.4721C5.10581 14.2718 2.39753 16.058 0.362773 18.606C0.365085 18.4087 0.372052 18.2189 0.375348 18.0154C0.597795 11.93 2.69765 7.33847 6.25106 6.38634C9.80446 5.4342 13.9131 8.35926 17.1475 13.5242C17.2491 13.6879 17.353 13.8597 17.4522 14.024Z" fill="#C7B9FF"/>
<path d="M21.3275 23.3663C21.8642 25.3557 22.2431 27.3835 22.4598 29.4264C23.3307 37.7089 21.1495 44.4395 16.7599 45.6157C12.3702 46.7919 7.11084 42.0344 3.72897 34.4453C2.89633 32.5673 2.21057 30.6218 1.67952 28.631C0.956127 25.9661 0.523706 23.2324 0.391675 20.4895C0.362591 19.8513 0.355079 19.2249 0.361046 18.6095C2.39562 16.0596 5.10466 14.2721 8.14706 13.4722C11.1797 12.6457 14.4167 12.8376 17.4522 14.0241C17.766 14.5479 18.071 15.0975 18.3674 15.6641C19.6272 18.1074 20.6211 20.6937 21.3275 23.3663Z" fill="white"/>
<path d="M39.1257 8.21665C36.0879 7.04257 32.8539 6.8504 29.8189 7.66365C26.7838 8.47689 24.0792 10.2603 22.0355 12.796C22.0378 12.5986 22.0472 12.4081 22.0505 12.2046C22.2585 6.11434 24.3731 1.51884 27.9216 0.56802C31.4701 -0.382798 35.5841 2.55256 38.8086 7.72016C38.9201 7.88117 39.0264 8.05236 39.1257 8.21665Z" fill="#C7B9FF"/>
<path d="M43.001 17.559C43.5365 19.5486 43.9154 21.5764 44.1333 23.6191C45.0018 31.9023 42.8206 38.6329 38.4334 39.8084C34.0463 40.984 28.7844 36.2272 25.4001 28.6386C24.5675 26.7606 23.8817 24.8151 23.3506 22.8243C22.628 20.1591 22.1964 17.4252 22.0652 14.6822C22.0337 14.0446 22.0262 13.4182 22.0346 12.8022C24.0779 10.266 26.7825 8.48215 29.8177 7.66888C32.8529 6.8556 36.0871 7.04814 39.1248 8.22295C39.4411 8.74606 39.7461 9.2957 40.04 9.86297C41.2997 12.3043 42.294 14.8885 43.001 17.559Z" fill="white"/>
<path d="M43.1122 11.48C42.8067 10.8893 42.4932 10.3273 42.1847 9.81385C42.0816 9.64474 41.9785 9.47563 41.8736 9.30992C39.741 5.90236 37.3236 3.56072 34.9421 2.48098C32.5459 0.42437 30.0593 -0.409913 27.8179 0.190672C24.213 1.1566 21.9183 5.63887 21.6863 12.179L21.6943 12.2091C21.6891 12.3955 21.6814 12.5826 21.6793 12.7711C21.6723 13.4513 21.6816 14.0743 21.7117 14.6771C21.7671 15.9936 21.895 17.3097 22.0948 18.618C21.8844 18.1663 21.6681 17.7221 21.441 17.2867C21.1331 16.6968 20.822 16.1341 20.5112 15.6213C20.4105 15.4515 20.3049 15.283 20.2025 15.1167C18.0625 11.7111 15.6549 9.36682 13.271 8.28773C10.8772 6.23047 8.39066 5.39619 6.14434 5.99809C2.54189 6.96336 0.249613 11.445 0.0127015 17.9864L0.0207768 18.0166C0.013076 18.2036 0.00782791 18.39 0.00576602 18.5785C-0.011026 19.2614 0.0129186 19.8804 0.0282879 20.4871C0.16137 23.2623 0.598889 26.0282 1.33129 28.7243C1.86867 30.738 2.56219 32.706 3.40399 34.6058C5.8687 40.1356 9.19983 44.0237 12.5018 45.5175C14.8858 47.548 17.3706 48.4151 19.6243 47.8112C24.1022 46.6113 26.496 39.9383 25.5809 31.2066C25.5184 30.6008 25.4374 29.9941 25.3541 29.3792C27.7885 34.5999 31.0041 38.2723 34.1884 39.7095C36.5716 41.7373 39.0515 42.6057 41.3077 42.0011C45.7832 40.8019 48.1769 34.1289 47.2643 25.3965C47.0403 23.3318 46.6539 21.2825 46.1095 19.272C45.3962 16.5674 44.3897 13.9506 43.1122 11.48ZM6.35283 6.77619C9.50161 5.93248 13.3817 8.41663 16.5657 13.2956C13.7493 12.4036 10.8101 12.3303 8.0428 13.0832C5.26738 13.8149 2.757 15.3505 0.764469 17.5354C1.08559 11.7202 3.20406 7.6199 6.35283 6.77619ZM4.34194 34.9183C5.34623 35.7785 6.56004 36.2701 7.79956 36.3186C9.03908 36.3672 10.2368 35.9701 11.2114 35.1874C12.186 34.4047 12.8843 33.2792 13.2006 31.9811C13.517 30.6831 13.4341 29.2832 12.9646 27.9936C12.495 26.704 11.6644 25.5948 10.5985 24.834C9.53251 24.0732 8.28931 23.7023 7.0571 23.7773C5.82489 23.8524 4.6708 24.3693 3.76957 25.2499C2.86834 26.1305 2.26907 27.3268 2.0625 28.6576C2.05222 28.6193 2.04121 28.5782 2.0302 28.5371C1.31346 25.9041 0.885283 23.2026 0.755048 20.492C0.729838 19.9467 0.72131 19.3852 0.724575 18.7794C2.70321 16.3401 5.31927 14.6308 8.2513 13.8613C11.1731 13.0633 14.2906 13.2342 17.2223 14.353C17.4996 14.819 17.7784 15.3199 18.0539 15.848C19.3004 18.2619 20.2828 20.818 20.9792 23.4597C21.5089 25.4262 21.8841 27.4303 22.1005 29.4493C22.9717 37.7817 20.7755 44.1228 16.6556 45.2267C12.6412 46.3024 7.74214 42.1737 4.34048 34.9128L4.34194 34.9183ZM28.0264 0.968778C31.1727 0.125724 35.0553 2.60921 38.2393 7.48816C35.4211 6.60541 32.4832 6.53153 29.7132 7.27376C26.9432 8.01598 24.4358 9.54889 22.4366 11.7225C22.7591 5.91277 24.8727 1.8138 28.0264 0.968778ZM26.0131 29.1115C27.0148 29.9719 28.2259 30.4654 29.4637 30.5174C30.7014 30.5695 31.8986 30.1773 32.8747 29.4001C33.8508 28.623 34.5527 27.5029 34.8747 26.2089C35.1967 24.915 35.1211 23.5173 34.6596 22.2268C34.198 20.9363 33.3753 19.823 32.3158 19.0548C31.2562 18.2867 30.0172 17.9053 28.7857 17.9683C27.5542 18.0313 26.3969 18.5352 25.4886 19.404C24.5802 20.2728 23.97 21.4594 23.7501 22.7848L23.6076 22.3707C22.9486 19.8529 22.5534 17.2754 22.4301 14.6901C22.4024 14.1455 22.3963 13.5833 22.3972 12.9781C24.3858 10.5529 26.9981 8.84698 29.9234 8.06315C32.8487 7.27931 35.964 7.45056 38.8988 8.55653C39.1761 9.02254 39.4549 9.52341 39.728 10.0522C40.9736 12.4624 41.9557 15.0145 42.6528 17.6523C43.1817 19.619 43.556 21.6234 43.7716 23.6425C44.6452 31.9743 42.4466 38.316 38.3292 39.4193C34.3147 40.495 29.4157 36.3663 26.0116 29.1061L26.0131 29.1115Z" fill="black"/>
<path d="M31.302 23.8858C32.4316 23.5831 33.0731 22.3147 32.735 21.0527C32.3969 19.7908 31.2071 19.0131 30.0775 19.3158C28.948 19.6184 28.3064 20.8868 28.6445 22.1488C28.9827 23.4107 30.1725 24.1884 31.302 23.8858Z" fill="white"/>
<path d="M9.63103 29.6922C10.7606 29.3896 11.4021 28.1212 11.064 26.8592C10.7259 25.5973 9.53606 24.8196 8.4065 25.1222C7.27695 25.4249 6.63539 26.6933 6.97354 27.9553C7.31168 29.2172 8.50148 29.9949 9.63103 29.6922Z" fill="white"/>
</svg>
