<svg width="29" height="19" viewBox="0 0 29 19" fill="none" xmlns="http://www.w3.org/2000/svg">
<path d="M26.5833 0H2.41667C1.08247 0 0 0.91183 0 2.03571V16.9643C0 18.0882 1.08247 19 2.41667 19H26.5833C27.9175 19 29 18.0882 29 16.9643V2.03571C29 0.91183 27.9175 0 26.5833 0ZM8.86111 4.07143C10.6384 4.07143 12.0833 5.28862 12.0833 6.78571C12.0833 8.28281 10.6384 9.5 8.86111 9.5C7.08385 9.5 5.63889 8.28281 5.63889 6.78571C5.63889 5.28862 7.08385 4.07143 8.86111 4.07143ZM14.5 14.1143C14.5 14.5638 13.9965 14.9286 13.3722 14.9286H4.35C3.72569 14.9286 3.22222 14.5638 3.22222 14.1143V13.3C3.22222 11.9513 4.73767 10.8571 6.60556 10.8571H6.85729C7.47656 11.0734 8.15122 11.1964 8.86111 11.1964C9.57101 11.1964 10.2507 11.0734 10.8649 10.8571H11.1167C12.9845 10.8571 14.5 11.9513 14.5 13.3V14.1143ZM25.7778 11.875C25.7778 12.0616 25.5965 12.2143 25.375 12.2143H18.125C17.9035 12.2143 17.7222 12.0616 17.7222 11.875V11.1964C17.7222 11.0098 17.9035 10.8571 18.125 10.8571H25.375C25.5965 10.8571 25.7778 11.0098 25.7778 11.1964V11.875ZM25.7778 9.16071C25.7778 9.34732 25.5965 9.5 25.375 9.5H18.125C17.9035 9.5 17.7222 9.34732 17.7222 9.16071V8.48214C17.7222 8.29554 17.9035 8.14286 18.125 8.14286H25.375C25.5965 8.14286 25.7778 8.29554 25.7778 8.48214V9.16071ZM25.7778 6.44643C25.7778 6.63304 25.5965 6.78571 25.375 6.78571H18.125C17.9035 6.78571 17.7222 6.63304 17.7222 6.44643V5.76786C17.7222 5.58125 17.9035 5.42857 18.125 5.42857H25.375C25.5965 5.42857 25.7778 5.58125 25.7778 5.76786V6.44643Z" fill="#5A0F2E"/>
</svg>
