<svg width="21" height="21" viewBox="0 0 21 21" fill="none" xmlns="http://www.w3.org/2000/svg">
<circle cx="10.1317" cy="6.36828" r="4.18078" stroke="#5A0F2E" stroke-width="1.5" stroke-linecap="round" stroke-linejoin="round"/>
<path fill-rule="evenodd" clip-rule="evenodd" d="M3.50001 16.3636C3.49889 16.0697 3.56462 15.7794 3.69223 15.5146C4.09269 14.7137 5.22198 14.2892 6.15905 14.097C6.83487 13.9528 7.52002 13.8565 8.2094 13.8087C9.48573 13.6966 10.7694 13.6966 12.0458 13.8087C12.7351 13.857 13.4202 13.9534 14.0961 14.097C15.0332 14.2892 16.1625 14.6737 16.5629 15.5146C16.8196 16.0543 16.8196 16.6809 16.5629 17.2206C16.1625 18.0616 15.0332 18.446 14.0961 18.6302C13.4211 18.7804 12.7357 18.8795 12.0458 18.9265C11.0069 19.0146 9.96326 19.0307 8.92221 18.9746C8.68194 18.9746 8.44967 18.9746 8.2094 18.9265C7.52205 18.88 6.83928 18.781 6.16706 18.6302C5.22198 18.446 4.1007 18.0616 3.69223 17.2206C3.56527 16.9528 3.49961 16.66 3.50001 16.3636Z" stroke="#5A0F2E" stroke-width="1.5" stroke-linecap="round" stroke-linejoin="round"/>
</svg>
