<svg width="11" height="8" viewBox="0 0 11 8" fill="none" xmlns="http://www.w3.org/2000/svg">
<path d="M10.725 1.16875C10.5875 0.687501 10.2438 0.34375 9.76251 0.20625C8.93751 1.22935e-07 5.43125 0 5.43125 0C5.43125 0 1.99375 1.22935e-07 1.1 0.20625C0.618754 0.34375 0.274998 0.687501 0.137498 1.16875C-2.10013e-06 2.0625 0 3.85 0 3.85C0 3.85 2.08989e-06 5.6375 0.206252 6.53125C0.343752 7.0125 0.687498 7.35625 1.16875 7.49375C1.99375 7.7 5.5 7.7 5.5 7.7C5.5 7.7 8.93749 7.7 9.83124 7.49375C10.3125 7.35625 10.6563 7.0125 10.7938 6.53125C11 5.6375 11 3.85 11 3.85C11 3.85 11 2.0625 10.725 1.16875ZM4.4 5.5L4.4 2.2L7.2875 3.85L4.4 5.5Z" fill="white"/>
</svg>
