<svg width="32" height="23" viewBox="0 0 32 23" fill="none" xmlns="http://www.w3.org/2000/svg">
<g clip-path="url(#clip0_537_192)">
<path d="M28.99 12.0257C31.815 9.48764 31.815 5.37728 28.99 2.8392C26.49 0.593104 22.55 0.301111 19.675 2.1474L19.595 2.19681C18.875 2.65951 18.71 3.55795 19.225 4.20033C19.74 4.84271 20.74 4.99545 21.455 4.53275L21.535 4.48334C23.14 3.45463 25.335 3.61635 26.725 4.86967C28.3 6.28471 28.3 8.57572 26.725 9.99076L21.115 15.04C19.54 16.455 16.99 16.455 15.415 15.04C14.02 13.7867 13.84 11.8146 14.985 10.3771L15.04 10.3052C15.555 9.65834 15.385 8.7599 14.67 8.3017C13.955 7.84349 12.95 7.99174 12.44 8.63412L12.385 8.70599C10.325 11.2845 10.65 14.8244 13.15 17.0704C15.975 19.6085 20.55 19.6085 23.375 17.0704L28.99 12.0257ZM3.01 10.9745C0.185 13.5126 0.185 17.623 3.01 20.1611C5.51 22.4072 9.45 22.6992 12.325 20.8529L12.405 20.8035C13.125 20.3408 13.29 19.4423 12.775 18.7999C12.26 18.1576 11.26 18.0048 10.545 18.4675L10.465 18.5169C8.86 19.5456 6.665 19.3839 5.275 18.1306C3.7 16.7111 3.7 14.4201 5.275 13.005L10.885 7.96029C12.46 6.54525 15.01 6.54525 16.585 7.96029C17.98 9.21361 18.16 11.1857 17.015 12.6277L16.96 12.6995C16.445 13.3464 16.615 14.2449 17.33 14.7031C18.045 15.1613 19.05 15.013 19.56 14.3706L19.615 14.2988C21.675 11.7158 21.35 8.17592 18.85 5.92982C16.025 3.39174 11.45 3.39174 8.625 5.92982L3.01 10.9745Z" fill="#5A0F2E"/>
</g>
<defs>
<clipPath id="clip0_537_192">
<rect width="32" height="23" fill="white"/>
</clipPath>
</defs>
</svg>
