<svg width="14" height="13" viewBox="0 0 14 13" fill="none" xmlns="http://www.w3.org/2000/svg">
<path d="M13 4.80182H8.5V0.873058C8.5 0.390966 8.05219 0 7.5 0H6.5C5.94781 0 5.5 0.390966 5.5 0.873058V4.80182H1C0.447812 4.80182 0 5.19279 0 5.67488V6.54793C0 7.03003 0.447812 7.42099 1 7.42099H5.5V11.3498C5.5 11.8318 5.94781 12.2228 6.5 12.2228H7.5C8.05219 12.2228 8.5 11.8318 8.5 11.3498V7.42099H13C13.5522 7.42099 14 7.03003 14 6.54793V5.67488C14 5.19279 13.5522 4.80182 13 4.80182Z" fill="#FFFBFB"/>
</svg>
