<svg width="43" height="35" viewBox="0 0 43 35" fill="none" xmlns="http://www.w3.org/2000/svg">
<g clip-path="url(#clip0_487_446)">
<path d="M21.5 29.1666C20.9028 29.1666 20.3951 28.9964 19.9771 28.6562C19.559 28.3159 19.35 27.9027 19.35 27.4166C19.35 26.9305 19.559 26.5173 19.9771 26.177C20.3951 25.8367 20.9028 25.6666 21.5 25.6666C22.0972 25.6666 22.6048 25.8367 23.0229 26.177C23.4409 26.5173 23.65 26.9305 23.65 27.4166C23.65 27.9027 23.4409 28.3159 23.0229 28.6562C22.6048 28.9964 22.0972 29.1666 21.5 29.1666ZM21.5 19.2499C20.9028 19.2499 20.3951 19.0798 19.9771 18.7395C19.559 18.3992 19.35 17.986 19.35 17.4999C19.35 17.0138 19.559 16.6006 19.9771 16.2603C20.3951 15.9201 20.9028 15.7499 21.5 15.7499C22.0972 15.7499 22.6048 15.9201 23.0229 16.2603C23.4409 16.6006 23.65 17.0138 23.65 17.4999C23.65 17.986 23.4409 18.3992 23.0229 18.7395C22.6048 19.0798 22.0972 19.2499 21.5 19.2499ZM21.5 9.33325C20.9028 9.33325 20.3951 9.16311 19.9771 8.82284C19.559 8.48256 19.35 8.06936 19.35 7.58325C19.35 7.09714 19.559 6.68395 19.9771 6.34367C20.3951 6.00339 20.9028 5.83325 21.5 5.83325C22.0972 5.83325 22.6048 6.00339 23.0229 6.34367C23.4409 6.68395 23.65 7.09714 23.65 7.58325C23.65 8.06936 23.4409 8.48256 23.0229 8.82284C22.6048 9.16311 22.0972 9.33325 21.5 9.33325Z" fill="#3A3A3A"/>
</g>
<defs>
<clipPath id="clip0_487_446">
<rect width="43" height="35" fill="white"/>
</clipPath>
</defs>
</svg>
