<svg width="12" height="13" viewBox="0 0 12 13" fill="none" xmlns="http://www.w3.org/2000/svg">
<path d="M10.3103 7.43137C9.33368 6.19659 7.95261 5.71898 6.90318 5.53781C6.96859 4.47486 6.82193 3.02091 5.8453 1.78614C4.46974 0.0469838 2.27679 -0.520318 0.958697 0.522208C-0.359397 1.56473 -0.312456 3.82939 1.0631 5.56854C2.03973 6.80332 3.4208 7.28093 4.47023 7.46211C4.40482 8.52505 4.55148 9.979 5.52811 11.2138C6.90367 12.9529 9.09662 13.5202 10.4147 12.4777C11.7328 11.4352 11.6859 9.17052 10.3103 7.43137ZM2.49776 4.43382C1.9038 3.68287 1.84956 2.73278 2.3771 2.31553C2.90464 1.89829 3.81668 2.1699 4.41064 2.92086C4.97505 3.63445 4.95563 4.71871 4.84305 5.4333C4.12918 5.37845 3.06069 5.14555 2.49776 4.43382ZM6.96277 10.0791C6.39837 9.36546 6.41778 8.28121 6.53036 7.56661C7.24424 7.62146 8.31272 7.85437 8.87565 8.5661C9.46961 9.31705 9.52385 10.2671 8.99631 10.6844C8.46878 11.1016 7.55673 10.83 6.96277 10.0791Z" fill="white"/>
</svg>
