<svg width="42" height="40" viewBox="0 0 42 40" fill="none" xmlns="http://www.w3.org/2000/svg">
<path d="M21.904 20.5722C21.7382 21.2354 21.6415 21.7742 21.4619 22.2992C19.6658 27.6046 16.7782 32.3298 13.49 36.82C13.1032 37.345 12.6196 37.8424 12.0808 38.174C11.7906 38.3536 11.2103 38.326 10.8788 38.1463C10.6301 38.0082 10.4505 37.4694 10.5057 37.1654C10.6024 36.5851 10.8097 35.991 11.0998 35.466C13.0064 31.9982 14.9269 28.5441 16.875 25.1039C17.6072 23.819 18.3809 22.5479 19.1408 21.2768C19.3895 20.8485 19.6658 20.4341 19.956 20.0472C20.2737 19.6051 20.7573 19.3426 21.2409 19.6327C21.5586 19.8262 21.904 19.9643 21.904 20.5722Z" fill="black"/>
<path d="M2.34042 -0.000134496C3.0036 0.110394 3.7773 0.193289 4.52337 0.359082C7.46621 1.02226 10.409 1.68543 13.3381 2.37623C13.9736 2.52821 14.5953 2.79072 15.1618 3.09467C15.9217 3.49534 16.1842 4.0618 16.0598 4.68353C15.9355 5.30526 15.4381 5.6921 14.5677 5.70592C13.9736 5.71974 13.3381 5.70592 12.7716 5.56776C9.05506 4.62826 5.33852 3.66114 1.6358 2.68019C1.22132 2.56966 0.793016 2.37624 0.475245 2.09992C-0.32609 1.42293 -0.0774006 0.359084 0.944994 0.0965779C1.34566 -0.000134977 1.80159 0.0413139 2.34042 -0.000134496Z" fill="black"/>
<path d="M41.1637 37.0411C41.1084 37.6904 40.9702 38.3398 40.8044 38.9753C40.6525 39.5418 40.2656 39.9424 39.6439 39.9977C39.1189 40.0392 38.5524 39.5141 38.4695 38.8233C38.359 37.8977 38.2623 36.9582 38.3037 36.0325C38.4281 33.2416 38.6077 30.4369 38.8011 27.6461C38.8702 26.7204 38.9945 25.7947 39.1465 24.869C39.2018 24.5513 39.3123 24.2197 39.4919 23.971C39.9755 23.2664 40.8597 23.3216 41.2051 24.0815C41.3985 24.5098 41.4814 25.0348 41.4814 25.5046C41.5505 27.052 41.3433 34.7476 41.1637 37.0411Z" fill="black"/>
</svg>
