<svg width="43" height="47" viewBox="0 0 43 47" fill="none" xmlns="http://www.w3.org/2000/svg">
<path d="M20.0492 22.8275C20.2188 22.0483 20.3178 21.4151 20.5016 20.7983C22.3397 14.5644 25.2948 9.01246 28.6599 3.73646C29.0558 3.11957 29.5507 2.53515 30.1021 2.14554C30.399 1.9345 30.9929 1.96697 31.3322 2.17801C31.5867 2.34035 31.7705 2.97346 31.714 3.33061C31.615 4.01243 31.4029 4.71049 31.106 5.32738C29.1548 9.40208 27.1894 13.4605 25.1958 17.5028C24.4464 19.0125 23.6546 20.506 22.877 21.9996C22.6225 22.5028 22.3397 22.9898 22.0428 23.4444C21.7176 23.9639 21.2227 24.2723 20.7278 23.9314C20.4026 23.7041 20.0492 23.5418 20.0492 22.8275Z" fill="black"/>
<path d="M40.0703 46.9998C39.3916 46.8699 38.5998 46.7725 37.8363 46.5777C34.8247 45.7985 31.813 45.0193 28.8155 44.2076C28.1651 44.029 27.5289 43.7206 26.9492 43.3634C26.1715 42.8926 25.9029 42.2271 26.0301 41.4965C26.1574 40.766 26.6664 40.3115 27.5571 40.2952C28.1651 40.279 28.8155 40.2952 29.3952 40.4576C33.1987 41.5615 37.0021 42.6978 40.7914 43.8504C41.2156 43.9803 41.6539 44.2076 41.9791 44.5323C42.7992 45.3277 42.5447 46.5777 41.4984 46.8862C41.0883 46.9998 40.6217 46.9511 40.0703 46.9998Z" fill="black"/>
<path d="M0.339136 3.47674C0.395693 2.71375 0.537085 1.95076 0.706755 1.204C0.862286 0.538414 1.25818 0.0676316 1.89445 0.00269616C2.43173 -0.0460054 3.01144 0.570882 3.09627 1.38258C3.20939 2.47025 3.30836 3.57415 3.26595 4.66182C3.13869 7.94106 2.95488 11.2365 2.75693 14.5158C2.68624 15.6034 2.55899 16.6911 2.40346 17.7788C2.3469 18.1522 2.23379 18.5418 2.04998 18.834C1.55511 19.6619 0.650198 19.597 0.296719 18.7041C0.0987707 18.2009 0.013936 17.584 0.013936 17.032C-0.0567599 15.2138 0.155327 6.17157 0.339136 3.47674Z" fill="black"/>
</svg>
