<svg width="18" height="18" viewBox="0 0 18 18" fill="none" xmlns="http://www.w3.org/2000/svg">
<path d="M16.0714 18H1.92857C0.863839 18 0 17.1362 0 16.0714V1.92857C0 0.863839 0.863839 0 1.92857 0H16.0714C17.1362 0 18 0.863839 18 1.92857V16.0714C18 17.1362 17.1362 18 16.0714 18ZM9.56652 5.86205L4.11429 11.3143L3.86116 13.6085C3.82902 13.9138 4.08616 14.175 4.39554 14.1429L6.68973 13.8897L12.142 8.4375C12.2344 8.34509 12.2344 8.19241 12.142 8.09598L9.91205 5.86607C9.81161 5.76964 9.65893 5.76964 9.56652 5.86205ZM13.8616 5.34777L12.6522 4.13839C12.2746 3.76071 11.6638 3.76071 11.2902 4.13839L10.3621 5.06652C10.2696 5.15893 10.2696 5.31161 10.3621 5.40804L12.592 7.63795C12.6844 7.73036 12.8371 7.73036 12.9335 7.63795L13.8616 6.70982C14.2353 6.33616 14.2353 5.72545 13.8616 5.34777Z" fill="#5A0F2E"/>
</svg>
