<svg width="12" height="12" viewBox="0 0 12 12" fill="none" xmlns="http://www.w3.org/2000/svg">
<path d="M5.99995 1.08433C7.5903 1.08433 7.80716 1.08433 8.45776 1.08433C9.03607 1.08433 9.32522 1.22891 9.54209 1.30119C9.83124 1.44577 10.0481 1.51806 10.265 1.73493C10.4818 1.95179 10.6264 2.16866 10.6987 2.45781C10.771 2.67468 10.8433 2.96383 10.9156 3.54214C10.9156 4.19274 10.9156 4.33731 10.9156 5.99995C10.9156 7.66259 10.9156 7.80716 10.9156 8.45776C10.9156 9.03607 10.771 9.32522 10.6987 9.54209C10.5541 9.83124 10.4818 10.0481 10.265 10.265C10.0481 10.4818 9.83124 10.6264 9.54209 10.6987C9.32522 10.771 9.03607 10.8433 8.45776 10.9156C7.80716 10.9156 7.66259 10.9156 5.99995 10.9156C4.33731 10.9156 4.19274 10.9156 3.54214 10.9156C2.96383 10.9156 2.67468 10.771 2.45781 10.6987C2.16866 10.5541 1.95179 10.4818 1.73493 10.265C1.51806 10.0481 1.37348 9.83124 1.30119 9.54209C1.22891 9.32522 1.15662 9.03607 1.08433 8.45776C1.08433 7.80716 1.08433 7.66259 1.08433 5.99995C1.08433 4.33731 1.08433 4.19274 1.08433 3.54214C1.08433 2.96383 1.22891 2.67468 1.30119 2.45781C1.44577 2.16866 1.51806 1.95179 1.73493 1.73493C1.95179 1.51806 2.16866 1.37348 2.45781 1.30119C2.67468 1.22891 2.96383 1.15662 3.54214 1.08433C4.19274 1.08433 4.4096 1.08433 5.99995 1.08433ZM5.99995 0C4.33731 0 4.19274 0 3.54214 0C2.89154 0 2.45781 0.144577 2.09637 0.289155C1.73493 0.433732 1.37348 0.650597 1.01204 1.01204C0.650597 1.37348 0.50602 1.66264 0.289155 2.09637C0.144577 2.45781 0.0722885 2.89154 0 3.54214C0 4.19274 0 4.4096 0 5.99995C0 7.66259 0 7.80716 0 8.45776C0 9.10836 0.144577 9.54209 0.289155 9.90353C0.433732 10.265 0.650597 10.6264 1.01204 10.9879C1.37348 11.3493 1.66264 11.4939 2.09637 11.7107C2.45781 11.8553 2.89154 11.9276 3.54214 11.9999C4.19274 11.9999 4.4096 11.9999 5.99995 11.9999C7.5903 11.9999 7.80716 11.9999 8.45776 11.9999C9.10836 11.9999 9.54209 11.8553 9.90353 11.7107C10.265 11.5662 10.6264 11.3493 10.9879 10.9879C11.3493 10.6264 11.4939 10.3373 11.7107 9.90353C11.8553 9.54209 11.9276 9.10836 11.9999 8.45776C11.9999 7.80716 11.9999 7.5903 11.9999 5.99995C11.9999 4.4096 11.9999 4.19274 11.9999 3.54214C11.9999 2.89154 11.8553 2.45781 11.7107 2.09637C11.5662 1.73493 11.3493 1.37348 10.9879 1.01204C10.6264 0.650597 10.3373 0.50602 9.90353 0.289155C9.54209 0.144577 9.10836 0.0722885 8.45776 0C7.80716 0 7.66259 0 5.99995 0Z" fill="white"/>
<path d="M5.99995 2.89154C4.26502 2.89154 2.89154 4.26502 2.89154 5.99995C2.89154 7.73487 4.26502 9.10836 5.99995 9.10836C7.73487 9.10836 9.10836 7.73487 9.10836 5.99995C9.10836 4.26502 7.73487 2.89154 5.99995 2.89154ZM5.99995 8.02403C4.91562 8.02403 3.97587 7.15657 3.97587 5.99995C3.97587 4.91562 4.84333 3.97587 5.99995 3.97587C7.08428 3.97587 8.02403 4.84333 8.02403 5.99995C8.02403 7.08428 7.08428 8.02403 5.99995 8.02403Z" fill="white"/>
<path d="M9.18064 3.54214C9.57988 3.54214 9.90353 3.21849 9.90353 2.81925C9.90353 2.42001 9.57988 2.09637 9.18064 2.09637C8.78141 2.09637 8.45776 2.42001 8.45776 2.81925C8.45776 3.21849 8.78141 3.54214 9.18064 3.54214Z" fill="white"/>
</svg>
