<svg width="17" height="15" viewBox="0 0 17 15" fill="none" xmlns="http://www.w3.org/2000/svg">
<path d="M11.7223 7.44378L16.5552 3.2114C17.1483 2.69203 17.1483 1.84995 16.5552 1.33015L15.4811 0.38953C14.888 -0.129843 13.9265 -0.129843 13.3329 0.38953L8.5 4.62191L3.66707 0.38953C3.07401 -0.129843 2.11244 -0.129843 1.51889 0.38953L0.444801 1.33015C-0.148267 1.84952 -0.148267 2.6916 0.444801 3.2114L5.27773 7.44378L0.444801 11.6762C-0.148267 12.1955 -0.148267 13.0376 0.444801 13.5574L1.51889 14.498C2.11196 15.0174 3.07401 15.0174 3.66707 14.498L8.5 10.2656L13.3329 14.498C13.926 15.0174 14.888 15.0174 15.4811 14.498L16.5552 13.5574C17.1483 13.038 17.1483 12.196 16.5552 11.6762L11.7223 7.44378Z" fill="#5A0F2E"/>
</svg>
