<svg width="27" height="19" viewBox="0 0 27 19" fill="none" xmlns="http://www.w3.org/2000/svg">
<path d="M22.68 8.25313C22.853 7.79933 22.95 7.30312 22.95 6.78571C22.95 4.53795 21.1359 2.71429 18.9 2.71429C18.0689 2.71429 17.2927 2.96875 16.6514 3.40134C15.4828 1.36562 13.3017 0 10.8 0C7.07062 0 4.05 3.03661 4.05 6.78571C4.05 6.90022 4.05422 7.01473 4.05844 7.12924C1.69594 7.96473 0 10.2295 0 12.8929C0 16.2645 2.72109 19 6.075 19H21.6C24.5827 19 27 16.5699 27 13.5714C27 10.9462 25.1437 8.75357 22.68 8.25313ZM16.5966 10.8571H13.8375V15.6071C13.8375 15.9804 13.5338 16.2857 13.1625 16.2857H11.1375C10.7663 16.2857 10.4625 15.9804 10.4625 15.6071V10.8571H7.70344C7.10016 10.8571 6.80063 10.1277 7.22672 9.69933L11.6733 5.22924C11.9348 4.96629 12.3652 4.96629 12.6267 5.22924L17.0733 9.69933C17.4994 10.1277 17.1956 10.8571 16.5966 10.8571Z" fill="#5A0F2E"/>
</svg>
