<svg width="29" height="27" viewBox="0 0 29 27" fill="none" xmlns="http://www.w3.org/2000/svg">
<path d="M10.3893 24.639V20.7383C10.3893 19.7462 11.3088 18.94 12.4481 18.9333H16.6213C17.766 18.9333 18.694 19.7415 18.694 20.7383V20.7383V24.6511C18.6937 25.4934 19.4658 26.1819 20.4328 26.2016H23.215C25.9884 26.2016 28.2367 24.2437 28.2367 21.8286V21.8286V10.7323C28.2219 9.78215 27.7096 8.88992 26.8457 8.30952L17.3308 1.63481C15.6639 0.472604 13.2943 0.472604 11.6274 1.63481L2.15422 8.32164C1.28697 8.89968 0.773836 9.79339 0.763155 10.7444V21.8286C0.763155 24.2437 3.01147 26.2016 5.78491 26.2016H8.56704C9.5581 26.2016 10.3615 25.502 10.3615 24.639V24.639" stroke="white" stroke-width="1.5" stroke-linecap="round" stroke-linejoin="round"/>
</svg>
