<svg width="21" height="21" viewBox="0 0 21 21" fill="none" xmlns="http://www.w3.org/2000/svg">
<path d="M14.1751 13.5502C14.0093 13.5502 13.8504 13.616 13.7332 13.7333C13.6159 13.8505 13.5501 14.0094 13.5501 14.1752C13.5501 14.341 13.6159 14.4999 13.7332 14.6171C13.8504 14.7343 14.0093 14.8002 14.1751 14.8002H16.2751C16.4409 14.8002 16.5998 14.7343 16.717 14.6171C16.8343 14.4999 16.9001 14.341 16.9001 14.1752C16.9001 14.0094 16.8343 13.8505 16.717 13.7333C16.5998 13.616 16.4409 13.5502 16.2751 13.5502H14.1751ZM2.87512 4.97521C2.31485 5.53548 2.0001 6.29536 2.0001 7.0877V13.9127C2.0001 14.705 2.31485 15.4649 2.87512 16.0252C3.43538 16.5854 4.19526 16.9002 4.9876 16.9002H16.0126C16.8049 16.9002 17.5648 16.5854 18.1251 16.0252C18.6853 15.4649 19.0001 14.705 19.0001 13.9127V7.0877C19.0001 6.29536 18.6853 5.53548 18.1251 4.97521C17.5648 4.41495 16.8049 4.1002 16.0126 4.1002H4.9876C4.19526 4.1002 3.43538 4.41495 2.87512 4.97521ZM3.759 5.8591C4.08484 5.53325 4.52678 5.3502 4.9876 5.3502H16.0126C16.4734 5.3502 16.9153 5.53325 17.2412 5.8591C17.567 6.18494 17.7501 6.62688 17.7501 7.0877V8.3002H3.2501V7.0877C3.2501 6.62688 3.43316 6.18494 3.759 5.8591ZM3.2501 9.5502H17.7501V13.9127C17.7501 14.3735 17.567 14.8154 17.2412 15.1413C16.9153 15.4671 16.4734 15.6502 16.0126 15.6502H4.9876C4.02853 15.6502 3.2501 14.8718 3.2501 13.9127V9.5502Z" fill="#5A0F2E" stroke="#5A0F2E" stroke-width="0.2"/>
</svg>
