<svg width="11" height="11" viewBox="0 0 11 11" fill="none" xmlns="http://www.w3.org/2000/svg">
<path d="M11 5.5C11 2.475 8.525 0 5.5 0C2.475 0 0 2.475 0 5.5C0 8.25 1.99375 10.5188 4.60625 10.9312L4.60625 7.08125L3.23125 7.08125L3.23125 5.5L4.60625 5.5L4.60625 4.2625C4.60625 2.8875 5.43125 2.13125 6.66875 2.13125C7.2875 2.13125 7.90625 2.26875 7.90625 2.26875V3.64375L7.21875 3.64375C6.53125 3.64375 6.325 4.05625 6.325 4.46875L6.325 5.5L7.8375 5.5L7.5625 7.08125L6.25625 7.08125L6.25625 11C9.00625 10.5875 11 8.25 11 5.5Z" fill="white"/>
</svg>
