<svg width="340" height="332" viewBox="0 0 340 332" fill="none" xmlns="http://www.w3.org/2000/svg">
<path d="M176.962 0.00109633C214.248 0.158049 249.459 16.698 278.387 40.1757C306.968 63.3714 329.634 94.2788 337.405 130.215C344.895 164.853 335.279 200.479 319.966 232.45C305.749 262.134 282.305 285.475 254.544 303.22C227.268 320.656 196.629 332.299 164.239 331.994C131.166 331.682 99.9788 319.712 72.3933 301.503C42.7434 281.932 10.901 259.336 2.09633 224.965C-6.64256 190.851 13.9315 157.638 27.1799 125.003C39.9443 93.5605 51.3793 61.0932 77.4569 39.3299C105.51 15.9179 140.392 -0.152839 176.962 0.00109633Z" fill="white" fill-opacity="0.6"/>
</svg>
