<svg width="8" height="10" viewBox="0 0 8 10" fill="none" xmlns="http://www.w3.org/2000/svg">
<path d="M0.571429 9.0625C0.571429 9.31114 0.661734 9.5496 0.82248 9.72541C0.983225 9.90123 1.20124 10 1.42857 10H6.57143C6.79876 10 7.01678 9.90123 7.17752 9.72541C7.33827 9.5496 7.42857 9.31114 7.42857 9.0625V2.5H0.571429V9.0625ZM5.42857 4.0625C5.42857 3.97962 5.45867 3.90014 5.51226 3.84153C5.56584 3.78293 5.63851 3.75 5.71429 3.75C5.79006 3.75 5.86273 3.78293 5.91632 3.84153C5.9699 3.90014 6 3.97962 6 4.0625V8.4375C6 8.52038 5.9699 8.59987 5.91632 8.65847C5.86273 8.71708 5.79006 8.75 5.71429 8.75C5.63851 8.75 5.56584 8.71708 5.51226 8.65847C5.45867 8.59987 5.42857 8.52038 5.42857 8.4375V4.0625ZM3.71429 4.0625C3.71429 3.97962 3.74439 3.90014 3.79797 3.84153C3.85155 3.78293 3.92422 3.75 4 3.75C4.07578 3.75 4.14845 3.78293 4.20203 3.84153C4.25561 3.90014 4.28571 3.97962 4.28571 4.0625V8.4375C4.28571 8.52038 4.25561 8.59987 4.20203 8.65847C4.14845 8.71708 4.07578 8.75 4 8.75C3.92422 8.75 3.85155 8.71708 3.79797 8.65847C3.74439 8.59987 3.71429 8.52038 3.71429 8.4375V4.0625ZM2 4.0625C2 3.97962 2.0301 3.90014 2.08368 3.84153C2.13727 3.78293 2.20994 3.75 2.28571 3.75C2.36149 3.75 2.43416 3.78293 2.48774 3.84153C2.54133 3.90014 2.57143 3.97962 2.57143 4.0625V8.4375C2.57143 8.52038 2.54133 8.59987 2.48774 8.65847C2.43416 8.71708 2.36149 8.75 2.28571 8.75C2.20994 8.75 2.13727 8.71708 2.08368 8.65847C2.0301 8.59987 2 8.52038 2 8.4375V4.0625ZM7.71429 0.625003H5.57143L5.40357 0.259769C5.36801 0.181686 5.31324 0.116004 5.24541 0.0701125C5.17759 0.024221 5.0994 -5.91399e-05 5.01964 3.42436e-06H2.97857C2.899 -0.000331156 2.82094 0.0238585 2.75336 0.069801C2.68577 0.115743 2.63138 0.18158 2.59643 0.259769L2.42857 0.625003H0.285714C0.209938 0.625003 0.137266 0.657927 0.0836838 0.716532C0.030102 0.775137 0 0.854623 0 0.937503L0 1.5625C0 1.64538 0.030102 1.72487 0.0836838 1.78347C0.137266 1.84208 0.209938 1.875 0.285714 1.875H7.71429C7.79006 1.875 7.86273 1.84208 7.91632 1.78347C7.9699 1.72487 8 1.64538 8 1.5625V0.937503C8 0.854623 7.9699 0.775137 7.91632 0.716532C7.86273 0.657927 7.79006 0.625003 7.71429 0.625003Z" fill="white"/>
</svg>
