<svg width="11" height="9" viewBox="0 0 11 9" fill="none" xmlns="http://www.w3.org/2000/svg">
<path d="M11 1.03125C10.5875 1.2375 10.175 1.30625 9.69375 1.375C10.175 1.1 10.5188 0.6875 10.6562 0.1375C10.2437 0.4125 9.7625 0.55 9.2125 0.6875C8.8 0.275 8.18125 0 7.5625 0C6.11875 0 5.01875 1.375 5.3625 2.75C3.50625 2.68125 1.85625 1.7875 0.6875 0.4125C0.06875 1.44375 0.4125 2.75 1.375 3.4375C1.03125 3.4375 0.6875 3.3 0.34375 3.1625C0.34375 4.19375 1.1 5.15625 2.13125 5.43125C1.7875 5.5 1.44375 5.56875 1.1 5.5C1.375 6.39375 2.2 7.08125 3.23125 7.08125C2.40625 7.7 1.16875 8.04375 0 7.90625C1.03125 8.525 2.2 8.9375 3.4375 8.9375C7.63125 8.9375 9.96875 5.43125 9.83125 2.2C10.3125 1.925 10.725 1.5125 11 1.03125Z" fill="white"/>
</svg>
