<svg width="19" height="22" viewBox="0 0 19 22" fill="none" xmlns="http://www.w3.org/2000/svg">
<path fill-rule="evenodd" clip-rule="evenodd" d="M12.8928 4.5835H15.4789C16.5488 4.5835 17.4168 5.459 17.4168 6.53906V9.14674C17.4168 10.226 16.5488 11.1023 15.4789 11.1023H12.8928C11.8221 11.1023 10.9541 10.226 10.9541 9.14674V6.53906C10.9541 5.459 11.8221 4.5835 12.8928 4.5835Z" stroke="#5A0F2E" stroke-width="1.5" stroke-linecap="round" stroke-linejoin="round"/>
<path fill-rule="evenodd" clip-rule="evenodd" d="M3.52223 4.5835H6.10747C7.17823 4.5835 8.0462 5.459 8.0462 6.53906V9.14674C8.0462 10.226 7.17823 11.1023 6.10747 11.1023H3.52223C2.45146 11.1023 1.5835 10.226 1.5835 9.14674V6.53906C1.5835 5.459 2.45146 4.5835 3.52223 4.5835Z" stroke="#5A0F2E" stroke-width="1.5" stroke-linecap="round" stroke-linejoin="round"/>
<path fill-rule="evenodd" clip-rule="evenodd" d="M3.52223 13.8979H6.10747C7.17823 13.8979 8.0462 14.7735 8.0462 15.8543V18.4612C8.0462 19.5413 7.17823 20.4168 6.10747 20.4168H3.52223C2.45146 20.4168 1.5835 19.5413 1.5835 18.4612V15.8543C1.5835 14.7735 2.45146 13.8979 3.52223 13.8979Z" stroke="#5A0F2E" stroke-width="1.5" stroke-linecap="round" stroke-linejoin="round"/>
<path fill-rule="evenodd" clip-rule="evenodd" d="M12.8928 13.8979H15.4789C16.5488 13.8979 17.4168 14.7735 17.4168 15.8543V18.4612C17.4168 19.5413 16.5488 20.4168 15.4789 20.4168H12.8928C11.8221 20.4168 10.9541 19.5413 10.9541 18.4612V15.8543C10.9541 14.7735 11.8221 13.8979 12.8928 13.8979Z" stroke="#5A0F2E" stroke-width="1.5" stroke-linecap="round" stroke-linejoin="round"/>
</svg>
