<svg width="11" height="9" viewBox="0 0 11 9" fill="none" xmlns="http://www.w3.org/2000/svg">
<path d="M11 4.5C11 6.98583 8.53735 9 5.5 9C2.46265 9 0 6.98583 0 4.5C0 2.01562 2.46265 0 5.5 0C8.53735 0 11 2.01562 11 4.5ZM5.64759 1.4879C4.43899 1.4879 3.66815 1.90446 3.06283 2.6448C2.98442 2.74072 3.01065 2.87007 3.12305 2.93981L3.89258 3.41721C4.00801 3.48882 4.17248 3.47179 4.26217 3.3787C4.65834 2.96757 4.93 2.72916 5.533 2.72916C5.98606 2.72916 6.54646 2.96773 6.54646 3.32719C6.54646 3.59893 6.27228 3.73848 5.82494 3.94369C5.30324 4.18297 4.6129 4.48078 4.6129 5.22581V5.29839C4.6129 5.41863 4.73206 5.51613 4.87903 5.51613H6.12097C6.26794 5.51613 6.3871 5.41863 6.3871 5.29839V5.2742C6.3871 4.75775 8.23195 4.73625 8.23195 3.33871C8.23195 2.28625 6.89764 1.4879 5.64759 1.4879ZM5.5 5.9879C4.93747 5.9879 4.47984 6.36233 4.47984 6.82258C4.47984 7.28281 4.93747 7.65726 5.5 7.65726C6.06253 7.65726 6.52016 7.28281 6.52016 6.82258C6.52016 6.36233 6.06253 5.9879 5.5 5.9879Z" fill="#5A0F2E"/>
</svg>
