<svg width="12" height="16" viewBox="0 0 12 16" fill="none" xmlns="http://www.w3.org/2000/svg">
<path d="M10.6225 9.14632C9.61626 7.62662 8.19337 7.0388 7.11217 6.81582C7.17957 5.5076 7.02846 3.71816 6.02226 2.19846C4.60506 0.0580039 2.34572 -0.640201 0.987721 0.642884C-0.370277 1.92597 -0.321915 4.71319 1.09528 6.85364C2.10148 8.37334 3.52436 8.96117 4.60557 9.18414C4.53817 10.4924 4.68928 12.2818 5.69548 13.8015C7.11268 15.942 9.37202 16.6402 10.73 15.3571C12.088 14.074 12.0397 11.2868 10.6225 9.14632ZM2.57338 5.45709C1.96144 4.53285 1.90556 3.36354 2.44907 2.85001C2.99257 2.33649 3.93223 2.67078 4.54417 3.59501C5.12566 4.47327 5.10566 5.80771 4.98967 6.6872C4.25419 6.61969 3.15335 6.33304 2.57338 5.45709ZM7.17357 12.4049C6.59208 11.5267 6.61207 10.1923 6.72807 9.31276C7.46355 9.38027 8.56439 9.66692 9.14436 10.5429C9.7563 11.4671 9.81218 12.6364 9.26867 13.1499C8.72517 13.6635 7.78551 13.3292 7.17357 12.4049Z" fill="white"/>
</svg>
