<svg width="28" height="28" viewBox="0 0 28 28" fill="none" xmlns="http://www.w3.org/2000/svg">
<path d="M3.5 24.5V22.75H5.25V24.5H3.5ZM7.81667 24.5V22.75H10.2375V24.5H7.81667ZM12.8042 24.5V22.75H15.225V24.5H12.8042ZM17.7625 24.5V22.75H20.1833V24.5H17.7625ZM22.75 24.5V22.75H24.5V24.5H22.75ZM22.75 20.1833V17.7625H24.5V20.1833H22.75ZM22.75 15.1958V12.775H24.5V15.1958H22.75ZM22.75 10.2375V7.81667H24.5V10.2375H22.75ZM22.75 5.25V3.5H24.5V5.25H22.75ZM3.5 20.1833V3.5H20.1833V20.1833H3.5ZM5.25 18.4333H18.4333V5.25H5.25V18.4333Z" fill="black"/>
</svg>
