<svg width="11" height="11" viewBox="0 0 11 11" fill="none" xmlns="http://www.w3.org/2000/svg">
<path d="M5.5339 0C2.49025 0 0 2.49025 0 5.5339C0 7.81663 1.38348 9.7535 3.32034 10.5836C3.32034 10.1685 3.32034 9.7535 3.38951 9.33845C3.52786 8.85424 4.08125 6.29481 4.08125 6.29481C4.08125 6.29481 3.87373 5.94894 3.87373 5.39555C3.87373 4.56547 4.35795 3.9429 4.91134 3.9429C5.39556 3.9429 5.67224 4.28877 5.67224 4.77299C5.67224 5.2572 5.32638 6.01812 5.18803 6.70985C5.04968 7.26324 5.46473 7.74746 6.08729 7.74746C7.1249 7.74746 7.81663 6.43316 7.81663 4.77299C7.81663 3.52786 6.98655 2.6286 5.5339 2.6286C3.87373 2.6286 2.83613 3.87373 2.83613 5.2572C2.83613 5.74142 2.97447 6.08729 3.182 6.36398C3.25117 6.50233 3.32034 6.50233 3.25116 6.64068C3.25116 6.70985 3.18199 6.98655 3.11282 7.05572C3.04364 7.19407 2.97447 7.26324 2.83613 7.19407C2.07522 6.8482 1.72934 6.01812 1.72934 5.04968C1.72934 3.45869 3.04364 1.591 5.67224 1.591C7.81663 1.591 9.2001 3.11282 9.2001 4.77299C9.2001 6.91737 8.02415 8.57754 6.22564 8.57754C5.60307 8.57754 5.04968 8.23167 4.84216 7.88581C4.84216 7.88581 4.49629 9.13093 4.42712 9.40763C4.28877 9.82267 4.08125 10.2377 3.87373 10.5836C4.35795 10.7219 4.91133 10.7911 5.46472 10.7911C8.50837 10.7911 10.9986 8.30085 10.9986 5.2572C11.0678 2.49025 8.57754 0 5.5339 0Z" fill="white"/>
</svg>
