<svg width="23" height="24" viewBox="0 0 23 24" fill="none" xmlns="http://www.w3.org/2000/svg">
<path d="M18.0714 15C16.9108 15 15.844 15.3665 15.0019 15.9795L9.74029 12.9769C9.89611 12.3334 9.89611 11.6666 9.74029 11.023L15.0019 8.0205C15.844 8.63348 16.9108 9 18.0714 9C20.7934 9 23 6.98527 23 4.5C23 2.01473 20.7934 0 18.0714 0C15.3495 0 13.1429 2.01473 13.1429 4.5C13.1429 4.83553 13.1834 5.16234 13.2597 5.47692L7.99815 8.47945C7.15603 7.86652 6.08925 7.5 4.92857 7.5C2.20661 7.5 0 9.51473 0 12C0 14.4853 2.20661 16.5 4.92857 16.5C6.08925 16.5 7.15603 16.1335 7.99815 15.5205L13.2597 18.5231C13.1819 18.8439 13.1428 19.1714 13.1429 19.5C13.1429 21.9853 15.3495 24 18.0714 24C20.7934 24 23 21.9853 23 19.5C23 17.0147 20.7934 15 18.0714 15Z" fill="#5A0F2E"/>
</svg>
