<svg width="30" height="30" viewBox="0 0 30 30" fill="none" xmlns="http://www.w3.org/2000/svg">
<path d="M29.0585 3.86373L25.5843 0.82377C24.9815 0.296323 24.164 3.90045e-06 23.3115 0L11.7857 0C10.0105 0 8.57143 1.25918 8.57143 2.8125V5.625H3.21429C1.43906 5.625 0 6.88418 0 8.4375V27.1875C0 28.7408 1.43906 30 3.21429 30H18.2143C19.9895 30 21.4286 28.7408 21.4286 27.1875V24.375H26.7857C28.5609 24.375 30 23.1158 30 21.5625V5.85246C30 5.10654 29.6613 4.39117 29.0585 3.86373ZM17.8125 27.1875H3.61607C3.50951 27.1875 3.40732 27.1505 3.33197 27.0845C3.25662 27.0186 3.21429 26.9292 3.21429 26.8359V8.78906C3.21429 8.69582 3.25662 8.6064 3.33197 8.54047C3.40732 8.47454 3.50951 8.4375 3.61607 8.4375H8.57143V21.5625C8.57143 23.1158 10.0105 24.375 11.7857 24.375H18.2143V26.8359C18.2143 26.9292 18.172 27.0186 18.0966 27.0845C18.0213 27.1505 17.9191 27.1875 17.8125 27.1875ZM26.3839 21.5625H12.1875C12.0809 21.5625 11.9787 21.5255 11.9034 21.4595C11.828 21.3936 11.7857 21.3042 11.7857 21.2109V3.16406C11.7857 3.07082 11.828 2.9814 11.9034 2.91547C11.9787 2.84954 12.0809 2.8125 12.1875 2.8125H19.2857V7.96875C19.2857 8.74541 20.0052 9.375 20.8929 9.375H26.7857V21.2109C26.7857 21.3042 26.7434 21.3936 26.668 21.4595C26.5927 21.5255 26.4905 21.5625 26.3839 21.5625ZM26.7857 6.5625H22.5V2.8125H23.145C23.2515 2.8125 23.3537 2.84953 23.4291 2.91545L26.6681 5.74951C26.7054 5.78216 26.735 5.82092 26.7551 5.86358C26.7753 5.90624 26.7857 5.95195 26.7857 5.99812V6.5625Z" fill="black"/>
</svg>
