<svg width="16" height="16" viewBox="0 0 16 16" fill="none" xmlns="http://www.w3.org/2000/svg">
<path d="M8 0C3.58161 0 0 3.42011 0 7.63926C0 11.8584 3.58161 15.2785 8 15.2785C12.4184 15.2785 16 11.8584 16 7.63926C16 3.42011 12.4184 0 8 0ZM7.63419 7.39991C7.54097 7.54839 7.3729 7.63926 7.19161 7.63926H7.18161C7.04484 7.63926 6.91355 7.69132 6.81677 7.78373L6.63419 7.95807C6.53355 8.05418 6.53355 8.21035 6.63419 8.30646L6.81677 8.48081C6.91355 8.57322 6.96806 8.69859 6.96806 8.8292V9.11782C6.96806 9.39013 6.7371 9.61068 6.45194 9.61068H6.25484C6.05935 9.61068 5.88064 9.50533 5.79323 9.33807L5.06355 7.94483C4.98484 7.79451 4.77484 7.76186 4.65032 7.88076L4.02226 8.48019C3.92548 8.5726 3.79419 8.62466 3.65742 8.62466H1.63903C1.58452 8.30307 1.54839 7.97563 1.54839 7.63926C1.54839 4.24225 4.44258 1.47857 8 1.47857C8.69387 1.47857 9.36129 1.58669 9.98806 1.78106L8.37 2.96791C8.20516 3.07295 8.22064 3.3086 8.39774 3.39331L8.7471 3.55996C8.92194 3.64343 9.03226 3.81408 9.03226 4.00075V6.40712C9.03226 6.54327 8.91677 6.65355 8.77419 6.65355H8.67548C8.57774 6.65355 8.48839 6.60087 8.44484 6.5174C8.39452 6.42129 8.25258 6.41605 8.19452 6.50815L7.63419 7.39991ZM13.1613 10.7945C13.1613 10.9251 13.1068 11.0504 13.01 11.1428L12.7013 11.4376C12.6045 11.53 12.4732 11.5821 12.3365 11.5821H11.8474C11.7106 11.5821 11.5794 11.53 11.4826 11.4376L11.0629 11.0369C10.9575 10.9362 10.8265 10.8633 10.6828 10.8253C10.5391 10.7873 10.3876 10.7855 10.2429 10.82L9.55677 10.9839C9.51581 10.9938 9.47387 10.9987 9.43161 10.9987H9.09806C8.96129 10.9987 8.83 10.9466 8.73323 10.8542L8.34903 10.4873C8.30067 10.4411 8.27352 10.3784 8.27355 10.313V9.9988C8.27355 9.89808 8.33774 9.80751 8.43581 9.76993L9.70484 9.28509C9.76871 9.26075 9.82935 9.22902 9.88516 9.19114L10.65 8.67087C10.6937 8.64114 10.746 8.6252 10.7997 8.62528H11.1897C11.2939 8.62528 11.3881 8.68503 11.4281 8.77714L11.6006 9.17296C11.6104 9.1954 11.627 9.21456 11.6482 9.22804C11.6693 9.24153 11.6942 9.24873 11.7197 9.24874H11.8423C11.8997 9.24874 11.9503 9.21239 11.9661 9.16002L12.1016 8.7143C12.1177 8.66162 12.1681 8.62558 12.2255 8.62558H12.421C12.4923 8.62558 12.55 8.68072 12.55 8.7488V9.14709C12.55 9.21239 12.5771 9.27523 12.6255 9.32143L13.0097 9.6883C13.1065 9.78071 13.161 9.90608 13.161 10.0367V10.7945H13.1613Z" fill="white"/>
</svg>
