<svg width="43" height="35" viewBox="0 0 43 35" fill="none" xmlns="http://www.w3.org/2000/svg">
<g clip-path="url(#clip0_487_500)">
<path d="M21.5001 29.1668C20.9029 29.1668 20.3952 28.9967 19.9772 28.6564C19.5591 28.3161 19.3501 27.9029 19.3501 27.4168C19.3501 26.9307 19.5591 26.5175 19.9772 26.1772C20.3952 25.837 20.9029 25.6668 21.5001 25.6668C22.0973 25.6668 22.605 25.837 23.023 26.1772C23.4411 26.5175 23.6501 26.9307 23.6501 27.4168C23.6501 27.9029 23.4411 28.3161 23.023 28.6564C22.605 28.9967 22.0973 29.1668 21.5001 29.1668ZM21.5001 19.2502C20.9029 19.2502 20.3952 19.08 19.9772 18.7397C19.5591 18.3995 19.3501 17.9863 19.3501 17.5002C19.3501 17.0141 19.5591 16.6009 19.9772 16.2606C20.3952 15.9203 20.9029 15.7502 21.5001 15.7502C22.0973 15.7502 22.605 15.9203 23.023 16.2606C23.4411 16.6009 23.6501 17.0141 23.6501 17.5002C23.6501 17.9863 23.4411 18.3995 23.023 18.7397C22.605 19.08 22.0973 19.2502 21.5001 19.2502ZM21.5001 9.3335C20.9029 9.3335 20.3952 9.16336 19.9772 8.82308C19.5591 8.4828 19.3501 8.06961 19.3501 7.5835C19.3501 7.09738 19.5591 6.68419 19.9772 6.34391C20.3952 6.00363 20.9029 5.8335 21.5001 5.8335C22.0973 5.8335 22.605 6.00363 23.023 6.34391C23.4411 6.68419 23.6501 7.09738 23.6501 7.5835C23.6501 8.06961 23.4411 8.4828 23.023 8.82308C22.605 9.16336 22.0973 9.3335 21.5001 9.3335Z" fill="#3A3A3A"/>
</g>
<defs>
<clipPath id="clip0_487_500">
<rect width="43" height="35" fill="white"/>
</clipPath>
</defs>
</svg>
